<?xml version="1.0" encoding="UTF-8" standalone="no"?>
<!-- Created with Inkscape (http://www.inkscape.org/) -->

<svg
   xmlns:dc="http://purl.org/dc/elements/1.1/"
   xmlns:cc="http://creativecommons.org/ns#"
   xmlns:rdf="http://www.w3.org/1999/02/22-rdf-syntax-ns#"
   xmlns:svg="http://www.w3.org/2000/svg"
   xmlns="http://www.w3.org/2000/svg"
   xmlns:sodipodi="http://sodipodi.sourceforge.net/DTD/sodipodi-0.dtd"
   xmlns:inkscape="http://www.inkscape.org/namespaces/inkscape"
   id="svg2"
   version="1.1"
   inkscape:version="0.91 r13725"
   width="364.16245"
   height="364.16241"
   viewBox="0 0 364.16245 364.16241"
   sodipodi:docname="icon2.svg">
  <metadata
     id="metadata8">
    <rdf:RDF>
      <cc:Work
         rdf:about="">
        <dc:format>image/svg+xml</dc:format>
        <dc:type
           rdf:resource="http://purl.org/dc/dcmitype/StillImage" />
        <dc:title></dc:title>
      </cc:Work>
    </rdf:RDF>
  </metadata>
  <defs
     id="defs6" />
  <sodipodi:namedview
     pagecolor="#ffffff"
     bordercolor="#666666"
     borderopacity="1"
     objecttolerance="10"
     gridtolerance="10"
     guidetolerance="10"
     inkscape:pageopacity="0"
     inkscape:pageshadow="2"
     inkscape:window-width="1920"
     inkscape:window-height="1027"
     id="namedview4"
     showgrid="false"
     inkscape:zoom="1.4142136"
     inkscape:cx="445.07097"
     inkscape:cy="145.86709"
     inkscape:window-x="0"
     inkscape:window-y="0"
     inkscape:window-maximized="1"
     inkscape:current-layer="svg2"
     fit-margin-top="0"
     fit-margin-left="0"
     fit-margin-right="0"
     fit-margin-bottom="0" />
  <ellipse
     style="fill:#000000;fill-opacity:1;stroke:#ffffff;stroke-width:1.48287332;stroke-opacity:1"
     id="path4156"
     cx="182.08122"
     cy="182.08121"
     rx="181.33978"
     ry="181.33977" />
  <path
     style="fill:#ffffff;fill-opacity:1;stroke:#ffffff;stroke-opacity:1"
     d="m 55.328152,274.5051 -14.0625,-12.7575 0,-16.0395 0,-16.0395 3.71077,-1.29358 c 3.97107,-1.38432 11.32341,-10.63271 15.22478,-19.151 1.27218,-2.7777 3.14017,-6.11907 4.15108,-7.42526 1.01091,-1.30619 3.3104,-6.22806 5.10998,-10.9375 1.79958,-4.70944 3.71497,-8.56261 4.25643,-8.56261 0.54145,0 1.3084,-1.6197 1.70433,-3.59933 0.39593,-1.97963 1.59124,-4.4707 2.65625,-5.53572 1.06501,-1.06501 1.93638,-2.70781 1.93638,-3.65066 0,-0.94286 0.52815,-2.24867 1.17367,-2.90179 0.64552,-0.65313 3.1343,-7.09375 5.53062,-14.3125 2.39633,-7.21875 6.34246,-18.26503 8.76918,-24.54729 6.020698,-15.58631 6.637618,-27.56229 1.78511,-34.653607 -3.66278,-5.35267 -9.67732,-9.5491 -13.68627,-9.5491 -1.4395,0 -4.57423,1.71824 -6.96607,3.8183 -5.07439,4.45537 -8.32455,4.38012 -8.85878,-0.2051 -0.28043,-2.40692 0.52339,-3.82964 3.125,-5.53107 1.9264,-1.25985 4.24585,-3.03123 5.15433,-3.93638 0.90848,-0.90516 2.35731,-1.64575 3.21961,-1.64575 0.8623,0 2.88892,-1.40625 4.5036,-3.125005 1.61469,-1.71875 3.95302,-3.125 5.19629,-3.125 1.24328,0 3.8171,-1.38311 5.71961,-3.07357 6.870698,-6.10493 11.346398,-9.42643 12.702048,-9.42643 0.76013,0 1.38205,-0.5625 1.38205,-1.25 0,-0.72857 4.14773,-1.25 9.94319,-1.25 13.69255,0 13.09461,-0.6552 33.68803,36.914645 4.53408,8.2718 10.03241,18.959297 12.21851,23.749997 2.18609,4.7907 7.58171,16.58536 11.99024,26.21036 9.31304,20.3328 12.5081,28.38953 15.36714,38.75 2.59191,9.3925 4.02085,11.04766 5.05851,5.85937 0.43829,-2.19141 1.17607,-3.98437 1.63952,-3.98437 0.46345,0 1.55863,-2.10937 2.43375,-4.6875 0.87511,-2.57812 2.33515,-6.375 3.24451,-8.4375 0.90937,-2.0625 2.20157,-5.15625 2.87156,-6.875 0.67,-1.71875 2.3877,-5.9375 3.81714,-9.375 1.42942,-3.4375 2.93824,-7.65625 3.3529,-9.375 0.41466,-1.71875 1.77949,-5.65625 3.03292,-8.75 4.18204,-10.32206 5.13661,-14.60923 5.70159,-25.60722 0.41774,-8.1316 0.0841,-11.842847 -1.30635,-14.531697 -1.02705,-1.98609 -2.10919,-3.61108 -2.40475,-3.61108 -0.29556,0 -2.65619,1.43785 -5.24582,3.19523 -4.23024,2.87072 -4.8572,2.99177 -6.17329,1.1919 -2.36484,-3.23409 -0.60566,-6.54519 5.59244,-10.5261 3.1918,-2.05001 7.98334,-5.72613 10.64787,-8.16916 2.66454,-2.44303 5.29286,-4.441875 5.84071,-4.441875 0.54785,0 3.43028,-3.34315 6.40539,-7.42923 2.9751,-4.08608 6.36046,-7.46108 7.52301,-7.5 1.16255,-0.0389 2.46138,-0.63327 2.88628,-1.32077 0.4249,-0.6875 3.82013,-1.25 7.54496,-1.25 5.8822,0 7.0473,0.41952 8.86359,3.19153 2.09263,3.19377 7.12898,19.973445 9.172,30.558475 0.59712,3.09375 2.47631,11.531247 4.17597,18.749997 1.69966,7.21875 3.6299,16.5 4.28941,20.625 2.8508,17.83059 9.48396,47.33937 13.62766,60.625 7.62726,24.45472 10.3711,31.38339 15.4671,39.05709 4.37872,6.59361 7.16089,7.1594 11.47309,2.33321 l 3.51122,-3.92974 0,4.7599 c 0,4.48079 -1.3026,6.09461 -22.2126,27.51973 -15.39018,15.76932 -23.05012,22.75981 -24.93943,22.75981 -5.48494,0 -20.50947,-27.15158 -26.33394,-47.58934 -6.64492,-23.31667 -9.87364,-39.10437 -14.68078,-71.78566 -1.11238,-7.5625 -2.54243,-15.47743 -3.17788,-17.58875 -0.63546,-2.11131 -1.15537,-4.78318 -1.15537,-5.9375 0,-3.28427 -2.40965,-2.46113 -3.91904,1.33875 -0.751,1.89063 -2.42644,5.74911 -3.7232,8.57442 -1.29677,2.8253 -2.35776,5.70692 -2.35776,6.4036 0,1.14056 -2.11936,6.45905 -6.85779,17.20948 -0.90909,2.0625 -4.74044,11.0625 -8.51414,20 -3.77368,8.9375 -11.40091,26.75839 -16.94937,39.60196 -5.54848,12.84359 -10.42349,24.65609 -10.83338,26.25 -1.48977,5.79335 -3.73692,7.45519 -9.5171,7.03818 -5.38641,-0.38862 -5.41315,-0.41467 -6.81575,-6.64014 -0.77446,-3.4375 -2.30289,-8.35938 -3.39651,-10.9375 -1.09362,-2.57813 -1.76614,-4.6875 -1.4945,-4.6875 0.7459,0 -3.5167,-11.54632 -9.74379,-26.39349 -3.06073,-7.29767 -6.80147,-17.42267 -8.31275,-22.5 -1.51128,-5.07734 -5.87364,-17.10651 -9.69412,-26.73151 -3.82048,-9.625 -8.21449,-20.91942 -9.76446,-25.09872 -1.54998,-4.1793 -3.37681,-8.6793 -4.05963,-10 -0.68282,-1.3207 -2.17803,-4.58029 -3.32268,-7.24354 -1.14465,-2.66324 -2.41912,-4.50431 -2.83215,-4.09128 -1.09371,1.09371 -6.40371,13.99638 -9.33524,22.68354 -1.392008,4.125 -3.381558,9.46875 -4.421228,11.875 -1.03967,2.40625 -2.37322,5.5 -2.96345,6.875 -0.59023,1.375 -4.21612,10.375 -8.05753,20 -3.84142,9.625 -7.75777,19.1875 -8.70302,21.25 -0.94524,2.0625 -2.10556,5.30219 -2.57849,7.19931 -0.47292,1.89713 -1.36005,3.75844 -1.97139,4.13628 -2.58729,1.59902 -0.63463,5.38572 6.56281,12.72691 4.21274,4.29687 8.19881,7.8125 8.85793,7.8125 0.65913,0 2.62862,1.125 4.37665,2.5 4.61916,3.63344 10.160158,3.17042 15.197968,-1.26996 4.42819,-3.90307 6.93892,-4.63073 8.31202,-2.40899 1.60977,2.60465 -0.82034,6.93377 -8.38022,14.92895 -4.22545,4.46875 -9.990668,11.23844 -12.811588,15.04375 -2.82093,3.80531 -6.42366,8.30531 -8.00607,10 -1.58242,1.69469 -4.38888,5.47087 -6.23657,8.39151 -5.42786,8.57978 -8.10685,7.77584 -24.92196,-7.47881 z"
     id="path3344"
     inkscape:connector-curvature="0" />
</svg>
